<?xml version="1.0" ?><svg height="64" viewBox="0 0 64 64" width="64" xmlns="http://www.w3.org/2000/svg"><defs><style>.cls-1{fill:none;stroke:#000;stroke-linejoin:round;stroke-width:2px;}</style></defs><title/><g data-name="3-Add to Cart- Shopping" id="_3-Add_to_Cart-_Shopping"><path class="cls-1" d="M9,13V59a4,4,0,0,0,4,4H51a4,4,0,0,0,4-4V13Z"/><path class="cls-1" d="M44,23V5a4,4,0,0,0-4-4H24a4,4,0,0,0-4,4V23"/><line class="cls-1" x1="9" x2="55" y1="19" y2="19"/><circle class="cls-1" cx="20" cy="25" r="2"/><circle class="cls-1" cx="44" cy="25" r="2"/><polygon class="cls-1" points="44 44 39 52 42 52 42 58 46 58 46 52 49 52 44 44"/><circle class="cls-1" cx="26" cy="43" r="11"/><line class="cls-1" x1="26" x2="26" y1="37" y2="49"/><line class="cls-1" x1="32" x2="20" y1="43" y2="43"/><polyline class="cls-1" points="43 31 39 35 43 39"/><path class="cls-1" d="M39,35h8a1.959,1.959,0,0,0,2-2V28"/><line class="cls-1" x1="39" x2="37" y1="58" y2="58"/><line class="cls-1" x1="35" x2="33" y1="58" y2="58"/><line class="cls-1" x1="31" x2="22" y1="58" y2="58"/></g></svg>